<svg version="1.1" id="레이어_1" xmlns="http://www.w3.org/2000/svg" type="data:image/svg+xml"  xmlns:xlink="http://www.w3.org/1999/xlink" x="0px"
	 y="0px" viewBox="0 0 371.17 124.31" style="enable-background:new 0 0 371.17 124.31;">
<style type="text/css">
	.st0{fill:#8E521C;}
	.st1{fill:#DD8C17;}
</style>
<g>
	<g>
		<path class="st0" d="M212.15,53.85c0.12,1.68-0.1,2.86-0.65,3.52c-0.59,0.74-1.51,1.19-2.76,1.35c-0.43,0.04-0.84,0.06-1.23,0.06
			c-1.21,0-2.37-0.22-3.46-0.65c-1.49-0.59-2.31-1.8-2.46-3.64c-0.12-2.15-0.22-5.38-0.29-9.68c-0.08-5.01-0.22-8.76-0.41-11.26
			c-0.04-0.2-0.08-0.31-0.12-0.35h-0.06l-0.06,0.06c-0.82,0.67-1.49,1.7-1.99,3.11c-0.08,0.31-0.18,0.68-0.29,1.11
			c-0.16,0.59-0.35,1.49-0.59,2.7c-0.08,0.23-0.16,0.55-0.23,0.94l-0.04,0.34l-0.08,0.36c-0.63,2.89-1.49,4.97-2.58,6.22
			c-0.59,0.67-1.27,1.17-2.05,1.53c-1.37,0.67-2.87,0.65-4.52-0.06c-1.06-0.43-1.99-1.06-2.79-1.88c-0.8-0.82-1.4-1.72-1.79-2.7
			c-0.2-0.59-0.55-1.53-1.06-2.82c-0.59-1.6-1.04-2.82-1.35-3.64c-0.16-0.51-0.39-1.31-0.7-2.41c-0.12-0.47-0.22-0.82-0.29-1.06
			c-0.04-0.12-0.08-0.31-0.12-0.59c-0.35-1.29-0.68-2.09-1-2.41l-0.06,0.06v0.7c-0.35,5.08-0.53,8.92-0.53,11.5l-0.06,1.88
			c-0.12,4.19-0.29,7.31-0.53,9.39c-0.12,1.17-0.43,1.98-0.94,2.41c-0.31,0.27-0.8,0.47-1.47,0.59c-1.45,0.27-2.9,0.27-4.34,0
			c-0.31-0.04-0.65-0.12-1-0.23l-0.12-0.06l-0.7-0.29h0.06c-0.35-0.2-0.65-0.41-0.88-0.65c-0.63-0.63-0.98-1.53-1.06-2.7l0,0
			l-0.06-0.65v-0.12c0-0.39,0.02-0.82,0.06-1.29c0-2.85,0.25-7.2,0.76-13.02c0.2-2.39,0.33-4.17,0.41-5.34l0.12-1.76
			c0.23-2.82,0.39-4.93,0.47-6.34c0.04-0.74,0.08-1.31,0.12-1.7c0.04-0.39,0.12-0.9,0.23-1.53c0.12-0.63,0.3-1.17,0.56-1.64
			c0.25-0.47,0.58-0.9,0.97-1.29c1.09-1.06,2.74-1.6,4.93-1.64c0.59-0.04,1.17-0.02,1.76,0.06h0.06l1.58,0.29l0,0
			c0.31,0.08,0.56,0.28,0.79,0.4l0,0l1.55,0.71c0.08,0.04,0.14,0.08,0.18,0.12c1.25,0.94,2.25,2.48,2.99,4.63
			c0.27,0.78,0.66,1.98,1.17,3.58c1.25,3.79,2.27,6.59,3.05,8.39c0.23,0.51,0.45,0.84,0.64,1c0.12,0.12,0.23,0.18,0.35,0.18
			c0.12-0.04,0.23-0.2,0.35-0.47c0.51-1.17,1.11-2.97,1.82-5.4c0.43-1.45,0.76-2.52,1-3.23c0.66-2.03,1.28-3.8,1.9-5.48l0.02-0.3
			c0.04-0.12,0.01-0.16,0.13-0.44c0.55-1.41,1.15-2.31,1.82-2.7c1.41-0.9,3.05-1.35,4.93-1.35c3.48,0,5.69,0.94,6.63,2.82l0.06,0.06
			l0.35,0.82l0,0c0.23,0.7,0.41,1.78,0.53,3.23l0.18,1.94l0.06,0.23c0.47,5.01,0.84,9.35,1.11,13.02c0.04,0.04,0.06,0.08,0.06,0.12
			l0.06,0.65c0.12,1.68,0.23,3.27,0.35,4.75l0.06,0.65v0.12C211.88,49.24,212.03,51.62,212.15,53.85z"/>
		<path class="st0" d="M248.99,39.48c0.04,2.97-0.18,5.64-0.64,8.01c-0.47,2.37-1.41,4.39-2.82,6.07c-0.08,0.08-0.16,0.16-0.24,0.23
			l-0.64,0.76V54.5c-0.43,0.47-0.9,0.9-1.41,1.29h0.06l-0.7,0.47l-0.12,0.06c-3.13,2.19-6.75,3.32-10.85,3.4c-0.08,0-0.18,0-0.29,0
			c-0.67,0-1.41-0.06-2.23-0.18h-0.41l-0.23-0.06c-1.33-0.2-2.6-0.53-3.81-1h-0.06l-0.23-0.12L224,58.25
			c-0.9-0.43-1.72-0.88-2.46-1.35c-3.05-2.07-5.1-4.95-6.16-8.62l-0.06-0.18l-0.18-0.59c-0.23-0.86-0.41-1.78-0.53-2.76l-0.06-0.59
			v-0.18c-0.12-1.06-0.18-2.13-0.18-3.23l-0.06-17.48c0-1.09,0.1-1.92,0.29-2.46c0.35-0.98,1.03-1.72,2.02-2.23
			c1-0.51,2.06-0.76,3.2-0.76h0.23l0.82,0.12l0,0c1.17,0.16,2.15,0.57,2.93,1.23c0.78,0.7,1.29,1.88,1.53,3.52l0.06,0.82v0.18
			c0.08,0.98,0.06,2.43-0.06,4.34c-0.08,0.98-0.12,1.64-0.12,1.99c0,1.49-0.02,3.68-0.06,6.57c-0.04,3.13-0.06,5.46-0.06,6.98
			c0,1.76,0.54,3.34,1.61,4.75s2.57,2.17,4.49,2.29c1.84,0.12,3.34-0.39,4.52-1.53c1.72-1.6,2.56-4.15,2.52-7.63v-0.82l-0.06-3.87
			l-0.06-11.09c-0.04-2.03,0.14-3.54,0.53-4.52c0.24-0.63,0.59-1.18,1.06-1.67c0.47-0.49,1.01-0.9,1.61-1.23
			c0.61-0.33,1.22-0.52,1.85-0.56c0.55-0.08,1.11-0.04,1.7,0.12H245l1,0.29h-0.12c0.82,0.39,1.49,0.94,1.99,1.64v-0.18l0.41,0.88
			v0.06l0.06,0.18c0.31,0.78,0.49,1.92,0.53,3.4c0.08,2.43,0.12,6.06,0.12,10.91C248.99,36.97,248.99,38.46,248.99,39.48z"/>
		<path class="st0" d="M280.73,22.64c0.12,0.67,0.02,1.39-0.29,2.17c-0.7,1.76-2.58,2.7-5.63,2.82h-0.18h-0.65
			c-0.63,0-1.45-0.04-2.46-0.12h-0.65c-1.92-0.16-3.21-0.18-3.87-0.06c-2.43,0.35-3.77,1.49-4.05,3.4c-0.23,1.37,0.1,2.43,1,3.17
			c0.82,0.7,2.01,1.08,3.58,1.11h0.23h0.7c1.72,0,2.93,0,3.64,0c0.23,0,0.61-0.02,1.11-0.06c1.6-0.12,2.76,0.06,3.46,0.53
			c0.59,0.39,1.08,1.04,1.47,1.94c0.23,0.63,0.39,1.23,0.47,1.82v0.06c0.04,0.27,0.06,0.53,0.06,0.76c-0.08,1.06-0.45,1.9-1.11,2.52
			c-1.02,1.02-2.58,1.53-4.69,1.53h-0.7h-0.12c-0.51-0.04-1.23-0.1-2.17-0.18c-2.07-0.16-3.52-0.14-4.34,0.06
			c-1.17,0.23-1.94,0.68-2.29,1.35c-0.43,0.86-0.53,2.5-0.29,4.93c0.12,0.82,0.18,1.41,0.18,1.76c0.12,2.89-0.88,4.87-2.99,5.93
			c-0.98,0.51-2.35,0.82-4.11,0.94c-0.23,0-0.43,0-0.59,0c-0.74,0-1.33-0.14-1.76-0.41c-0.7-0.43-1.12-1.06-1.26-1.91
			c-0.14-0.84-0.13-1.63,0.03-2.38c0.04-0.63,0.06-1.08,0.06-1.35c0-0.35-0.02-0.8-0.06-1.35c-0.04-0.51-0.12-1.25-0.23-2.23
			c-0.04-0.47-0.08-1-0.12-1.58l-0.06-0.47V47.1c-0.08-0.86-0.12-1.62-0.12-2.29c0-1.02,0.06-2.52,0.18-4.52
			c0.12-2.42,0.16-4.24,0.12-5.46c0-0.78-0.1-1.96-0.29-3.52c-0.35-2.85-0.35-4.97,0-6.34c0.04-0.12,0.08-0.29,0.12-0.53h0.06V24.4
			l0.23-0.76v0.06c0.86-2.03,2.21-3.48,4.05-4.34c0.04,0,0.14-0.04,0.29-0.12h-0.06l0.7-0.23h0.06l0.12-0.06
			c1.21-0.39,3.07-0.53,5.57-0.41c0.39,0,0.68,0,0.88,0c1.6,0.04,3.99,0.02,7.16-0.06h0.76c2.66-0.04,4.73,0.27,6.22,0.94
			C279.54,20.12,280.42,21.19,280.73,22.64z"/>
		<path class="st0" d="M310.77,22.64c0.12,0.67,0.02,1.39-0.29,2.17c-0.7,1.76-2.58,2.7-5.63,2.82h-0.18h-0.65
			c-0.63,0-1.45-0.04-2.46-0.12h-0.65c-1.92-0.16-3.21-0.18-3.87-0.06c-2.43,0.35-3.77,1.49-4.05,3.4c-0.23,1.37,0.1,2.43,1,3.17
			c0.82,0.7,2.01,1.08,3.58,1.11h0.23h0.7c1.72,0,2.93,0,3.64,0c0.23,0,0.61-0.02,1.11-0.06c1.6-0.12,2.76,0.06,3.46,0.53
			c0.59,0.39,1.08,1.04,1.47,1.94c0.23,0.63,0.39,1.23,0.47,1.82v0.06c0.04,0.27,0.06,0.53,0.06,0.76c-0.08,1.06-0.45,1.9-1.11,2.52
			c-1.02,1.02-2.58,1.53-4.69,1.53h-0.7h-0.12c-0.51-0.04-1.23-0.1-2.17-0.18c-2.07-0.16-3.52-0.14-4.34,0.06
			c-1.17,0.23-1.94,0.68-2.29,1.35c-0.43,0.86-0.53,2.5-0.29,4.93c0.12,0.82,0.18,1.41,0.18,1.76c0.12,2.89-0.88,4.87-2.99,5.93
			c-0.98,0.51-2.35,0.82-4.11,0.94c-0.23,0-0.43,0-0.59,0c-0.74,0-1.33-0.14-1.76-0.41c-0.7-0.43-1.12-1.06-1.26-1.91
			c-0.14-0.84-0.13-1.63,0.03-2.38c0.04-0.63,0.06-1.08,0.06-1.35c0-0.35-0.02-0.8-0.06-1.35c-0.04-0.51-0.12-1.25-0.23-2.23
			c-0.04-0.47-0.08-1-0.12-1.58l-0.06-0.47V47.1c-0.08-0.86-0.12-1.62-0.12-2.29c0-1.02,0.06-2.52,0.18-4.52
			c0.12-2.42,0.16-4.24,0.12-5.46c0-0.78-0.1-1.96-0.29-3.52c-0.35-2.85-0.35-4.97,0-6.34c0.04-0.12,0.08-0.29,0.12-0.53h0.06V24.4
			l0.23-0.76v0.06c0.86-2.03,2.21-3.48,4.05-4.34c0.04,0,0.14-0.04,0.29-0.12h-0.06l0.7-0.23h0.06l0.12-0.06
			c1.21-0.39,3.07-0.53,5.57-0.41c0.39,0,0.68,0,0.88,0c1.6,0.04,3.99,0.02,7.16-0.06h0.76c2.66-0.04,4.73,0.27,6.22,0.94
			C309.57,20.12,310.45,21.19,310.77,22.64z"/>
		<path class="st0" d="M323.15,54.08c0,0.23-0.02,0.51-0.06,0.82v0.06v0.12l-0.06,0.7v-0.06c-0.08,0.31-0.18,0.59-0.29,0.82
			c-0.47,1.02-1.35,1.68-2.64,1.99l0.06,0.06l-0.65,0.06h-0.18c-0.31,0.04-0.59,0.06-0.82,0.06c-0.12,0-0.25,0-0.41,0
			c-0.43-0.04-0.96-0.1-1.58-0.18c-1.68-0.2-2.8-0.68-3.34-1.47c-0.35-0.47-0.57-1.23-0.64-2.29c-0.27-2.82-0.43-5.96-0.47-9.45
			v-0.18v-0.59c0-0.9,0-1.84,0-2.82v-0.59V41c0.04-1.53,0.08-3.79,0.12-6.81c0.12-4.5,0.16-7.86,0.12-10.09v-0.7
			c0-1.96,0.51-3.4,1.53-4.34c0.63-0.55,1.49-0.94,2.58-1.17h-0.06l0.88-0.12h0.12c2.15-0.12,3.73,0.41,4.75,1.58
			c0.74,0.86,1.06,2.43,0.94,4.69l-0.06,0.47c-0.04,1.45-0.08,3.6-0.12,6.45v0.47c-0.04,2.74,0,6.86,0.12,12.38
			C323.09,48.39,323.15,51.82,323.15,54.08z"/>
		<path class="st0" d="M361.92,44.29v0.12c0.08,4.54-0.1,8.1-0.53,10.68c-0.2,0.98-0.46,1.68-0.79,2.11
			c-0.33,0.43-0.81,0.78-1.44,1.06c-0.43,0.16-0.98,0.29-1.64,0.41c-0.74,0.12-1.45,0.18-2.11,0.18c-1.17,0-2.25-0.16-3.23-0.47
			c-2.27-0.74-4.13-2.64-5.57-5.69c-1.68-3.6-4.38-8.94-8.1-16.02l-0.35-0.59c-0.2-0.39-0.37-0.65-0.53-0.76
			c-0.23-0.2-0.43-0.21-0.59-0.06c-0.12,0.08-0.2,0.29-0.23,0.65c-0.08,0.9-0.06,2.27,0.06,4.11c0.08,1.1,0.12,1.92,0.12,2.46
			c0.04,0.86,0.06,1.99,0.06,3.4v0.18c0,2.58,0.02,4.58,0.06,5.98c0.04,1.02,0.06,1.76,0.06,2.23c0.04,0.7-0.03,1.38-0.21,2.02
			c-0.18,0.65-0.52,1.18-1.03,1.61c-0.55,0.43-1.33,0.7-2.35,0.82c-1.21,0.08-2.43-0.02-3.64-0.29c-0.98-0.23-1.7-0.57-2.17-1
			c-0.82-0.78-1.23-2.25-1.23-4.4c0-2.62,0.02-6.59,0.06-11.91c0-2.31,0.02-4.22,0.06-5.75c0-0.66,0-1.49,0-2.46v-0.23v-0.29v-0.59
			v-0.76c0-0.86,0-1.49,0-1.88c0-0.39,0-0.96,0-1.7c0-1.45,0-2.56,0-3.34c0-0.12,0-0.31,0-0.59c0-1.72,0.25-2.93,0.76-3.64
			c0.47-0.63,1.23-1.09,2.29-1.41c0.82-0.23,1.72-0.39,2.7-0.47h0.12l0.82-0.06v0.06c0.27,0,0.53,0,0.76,0
			c1.76,0.12,3.21,0.55,4.34,1.29l-0.06-0.12l0.53,0.53h0.06c0.04,0.04,0.08,0.08,0.12,0.12l0.12,0.12V20
			c0.74,0.67,1.53,1.86,2.35,3.58c0.12,0.31,0.21,0.53,0.29,0.65c0.31,0.67,0.82,1.66,1.53,2.99c0.55,1.02,0.96,1.78,1.23,2.29
			c0.04,0.08,0.12,0.25,0.23,0.53l0.53,1.06c0.35,0.63,0.68,1.27,1,1.94l0.29,0.65h0.06v0.12c1.17,2.35,2.48,5.03,3.93,8.04
			c0.04,0,0.06,0.02,0.06,0.06c0.04-0.08,0.08-0.16,0.12-0.23c0.39-0.82,0.59-2.13,0.59-3.93c0-0.35,0-0.63,0-0.82
			c0-2.03-0.02-4.01-0.06-5.93c-0.08-4.18,0.06-7.49,0.41-9.91c0.16-1.17,0.51-1.97,1.06-2.41c0.39-0.31,0.98-0.53,1.76-0.65
			l0.88-0.06c0.78-0.04,1.56-0.02,2.35,0.06c0.16,0,0.33,0.02,0.53,0.06v-0.06l0.7,0.23h0.12c0.39,0.16,0.72,0.31,1,0.47
			c0.98,0.7,1.54,1.86,1.7,3.46c0.12,1.13,0.14,2.82,0.06,5.05c-0.08,1.17-0.12,2.05-0.12,2.64v9.33c0,0.16,0.02,0.43,0.06,0.82
			v0.18v0.18c0,0.67,0.02,1.76,0.06,3.29v0.59V44.29z"/>
		<path class="st0" d="M202.79,85.42c0.23,0.74,0.27,1.96,0.12,3.64l-0.06,0.53c-0.04,0.43-0.06,0.76-0.06,1l-0.06,5.81v0.41v0.29
			c0,1.41-0.1,2.5-0.29,3.29c-0.08,0.27-0.16,0.53-0.23,0.76c-0.82,2.19-2.58,3.79-5.28,4.81c-2.35,0.94-5.14,1.41-8.39,1.41
			c-0.2,0-0.47,0-0.82,0h-0.12l-0.7-0.06c-0.74-0.04-1.49-0.1-2.23-0.18l-0.7-0.06h-0.12c-0.43-0.08-0.76-0.14-1-0.18l-0.47-0.06
			c-1.13-0.2-2.23-0.45-3.29-0.76c-0.47-0.16-0.92-0.31-1.35-0.47l-0.41-0.12c-2.15-0.78-4.1-2.2-5.84-4.25
			c-1.74-2.05-3.08-4.19-4.02-6.42c-1.1-2.54-1.7-5.22-1.82-8.04c-0.12-2.82,0.25-5.51,1.11-8.1c0.23-0.7,0.51-1.39,0.82-2.05
			c0.94-2.11,2.22-3.98,3.84-5.6c1.62-1.62,3.49-2.88,5.6-3.78l0.12-0.12l0.59-0.18l0.06-0.06c0.82-0.31,1.76-0.61,2.82-0.88
			l0.53-0.12l0.18-0.06h0.06c4.15-0.94,8.35-0.88,12.61,0.18c0.16,0.04,0.29,0.08,0.41,0.12c3.05,0.82,5.24,2.35,6.57,4.58
			c0.39,0.67,0.59,1.27,0.59,1.82c0,0.47-0.23,1.08-0.7,1.82c-0.74,1.25-1.53,1.92-2.35,1.99c-0.23,0.04-0.47,0.02-0.7-0.06h-0.06
			l0,0l-0.76-0.35l0,0c-0.04,0-0.08-0.02-0.12-0.06c-0.16-0.08-0.27-0.14-0.35-0.18c-0.47-0.23-1.11-0.47-1.94-0.7
			c-0.16-0.04-0.37-0.1-0.65-0.18c-1.88-0.51-3.7-0.74-5.46-0.7c-3.09,0.12-5.69,1.04-7.8,2.76c-2.27,1.8-3.62,4.44-4.05,7.92
			c-0.27,2.15-0.12,4.19,0.47,6.1c0.23,0.63,0.49,1.21,0.76,1.76c1.09,2.11,2.66,3.67,4.69,4.66c2.03,1,4.18,1.28,6.45,0.85
			c1.37-0.27,2.35-0.8,2.93-1.58c0.39-0.59,0.56-1.31,0.5-2.17c-0.06-0.86-0.32-1.6-0.79-2.23c-0.67-0.82-1.84-1.23-3.52-1.23
			c-0.16,0-0.45,0.02-0.88,0.06c-0.27,0.04-0.57,0.05-0.88,0.03c-0.31-0.02-0.6-0.06-0.85-0.12c-0.25-0.06-0.48-0.21-0.67-0.47
			c-0.2-0.25-0.35-0.58-0.47-0.97c-0.35-1.56-0.49-2.76-0.41-3.58c0.04-0.12,0.06-0.27,0.06-0.47l0.06-0.06
			c0.27-1.25,0.9-2.11,1.88-2.58c0.51-0.23,1.25-0.35,2.23-0.35c0.51,0,1.25-0.02,2.23-0.06h0.06l0.59-0.06h0.06h0.12
			c1.13-0.04,2.07-0.04,2.82,0c0.39,0,0.98-0.02,1.76-0.06c1.49-0.08,2.6-0.04,3.34,0.12c0.51,0.12,1,0.29,1.47,0.53
			c0.47,0.23,0.91,0.58,1.32,1.03C202.35,84.37,202.63,84.87,202.79,85.42z"/>
		<path class="st0" d="M243.71,104.19L243.71,104.19l-0.29,0.76l-0.06,0.12c-0.35,0.59-0.87,1.05-1.56,1.38
			c-0.68,0.33-1.5,0.5-2.43,0.5c-0.67,0-1.37-0.08-2.11-0.23c-2.07-0.39-3.48-1.6-4.22-3.64c-0.12-0.31-0.25-0.76-0.41-1.35
			c-0.39-1.41-0.84-2.35-1.35-2.82c-0.16-0.16-0.33-0.29-0.53-0.41c-1.02-0.63-2.76-0.94-5.22-0.94c-0.16,0-0.45-0.02-0.88-0.06
			c-1.37,0-2.35,0.08-2.93,0.23c-0.43,0.12-0.8,0.27-1.11,0.47c-0.78,0.55-1.51,1.64-2.17,3.29l-0.06,0.23h-0.06
			c-0.27,0.74-0.51,1.31-0.7,1.7c-0.2,0.39-0.52,0.85-0.97,1.38c-0.45,0.53-0.99,0.91-1.61,1.14c-0.9,0.43-1.89,0.68-2.96,0.76
			c-1.08,0.08-2.12-0.1-3.14-0.53c-1.06-0.47-1.74-1.27-2.05-2.41c-0.2-0.63-0.14-1.54,0.18-2.76c1.13-4.73,3.34-11.71,6.63-20.94
			l0.7-1.94c0.82-2.27,1.47-4.09,1.94-5.46c0-0.04,0.04-0.16,0.12-0.35l0.18-0.53l0.06-0.18c0.59-1.6,1.29-2.8,2.11-3.58
			c1.33-1.29,3.4-1.99,6.22-2.11c3.36-0.08,5.89,0.72,7.57,2.41c0.94,0.94,1.8,2.62,2.58,5.05c0.7,2.19,1.45,4.56,2.23,7.1
			l0.18,0.47c0.27,0.86,0.55,1.74,0.82,2.64l0.23,0.82v0.06l0.06,0.18c1.25,4.15,2.82,9.43,4.69,15.84l0.06,0.23l0,0l0.06,0.18
			l0.06,0.23l0,0C243.84,102.35,243.9,103.37,243.71,104.19z M226.11,78.14c-0.08-0.16-0.16-0.27-0.23-0.35
			c-0.08-0.04-0.16-0.06-0.23-0.06c-0.08,0-0.18,0.02-0.29,0.06c-0.08,0.08-0.16,0.16-0.23,0.23c-0.2,0.16-0.37,0.51-0.53,1.06
			c-0.47,1.53-1,3.05-1.58,4.58c-0.12,0.23-0.31,0.61-0.59,1.11c-0.63,1.21-0.92,2.07-0.88,2.58c0.04,0.67,0.33,1.13,0.88,1.41
			c0.66,0.31,1.41,0.43,2.23,0.35c0.82-0.08,1.51-0.25,2.05-0.53c2.07-1.09,2.37-3.56,0.88-7.39c-0.35-0.86-0.8-1.82-1.35-2.87
			L226.11,78.14z"/>
		<path class="st0" d="M291.69,101.79c0.12,1.68-0.1,2.86-0.64,3.52c-0.59,0.74-1.51,1.19-2.76,1.35c-0.43,0.04-0.84,0.06-1.23,0.06
			c-1.21,0-2.37-0.22-3.46-0.65c-1.49-0.59-2.31-1.8-2.46-3.64c-0.12-2.15-0.22-5.38-0.29-9.68c-0.08-5.01-0.22-8.76-0.41-11.26
			c-0.04-0.2-0.08-0.31-0.12-0.35h-0.06l-0.06,0.06c-0.82,0.67-1.49,1.7-1.99,3.11c-0.08,0.31-0.18,0.68-0.29,1.11
			c-0.16,0.59-0.35,1.49-0.59,2.7c-0.08,0.23-0.16,0.55-0.23,0.94l-0.06,0.53l-0.06,0.18c-0.63,2.89-1.49,4.97-2.58,6.22
			c-0.59,0.67-1.27,1.17-2.05,1.53c-1.37,0.67-2.87,0.65-4.52-0.06c-1.06-0.43-1.99-1.06-2.79-1.88c-0.8-0.82-1.4-1.72-1.79-2.7
			c-0.2-0.59-0.55-1.53-1.06-2.82c-0.59-1.6-1.04-2.82-1.35-3.64c-0.16-0.51-0.39-1.31-0.7-2.41c-0.12-0.47-0.22-0.82-0.29-1.06
			c-0.04-0.12-0.08-0.31-0.12-0.59c-0.35-1.29-0.68-2.09-1-2.41l-0.06,0.06v0.7c-0.35,5.08-0.53,8.92-0.53,11.5l-0.06,1.88
			c-0.12,4.19-0.29,7.31-0.53,9.39c-0.12,1.17-0.43,1.98-0.94,2.41c-0.31,0.27-0.8,0.47-1.47,0.59c-1.45,0.27-2.9,0.27-4.34,0
			c-0.31-0.04-0.65-0.12-1-0.23l-0.12-0.06l-0.7-0.29h0.06c-0.35-0.2-0.65-0.41-0.88-0.65c-0.63-0.63-0.98-1.53-1.06-2.7l-0.02-0.04
			l-0.04-0.61v-0.12c0-0.39,0.02-0.82,0.06-1.29c0-2.85,0.25-7.2,0.76-13.02c0.19-2.39,0.33-4.17,0.41-5.34l0.12-1.76
			c0.23-2.82,0.39-4.93,0.47-6.34c0.04-0.74,0.08-1.31,0.12-1.7c0.04-0.39,0.12-0.9,0.23-1.53c0.12-0.63,0.3-1.17,0.56-1.64
			c0.25-0.47,0.58-0.9,0.97-1.29c1.09-1.06,2.74-1.6,4.93-1.64c0.59-0.04,1.17-0.02,1.76,0.06h0.06l1.58,0.29l0,0
			c0.31,0.08,0.59,0.18,0.82,0.29l0,0l1.53,0.82c0.08,0.04,0.14,0.08,0.18,0.12c1.25,0.94,2.25,2.48,2.99,4.63
			c0.27,0.78,0.66,1.98,1.17,3.58c1.25,3.79,2.27,6.59,3.05,8.39c0.23,0.51,0.45,0.84,0.65,1c0.12,0.12,0.23,0.18,0.35,0.18
			c0.12-0.04,0.23-0.2,0.35-0.47c0.51-1.17,1.11-2.97,1.82-5.4c0.43-1.45,0.76-2.52,1-3.23c0.66-2.03,1.31-3.89,1.94-5.57l0,0
			c0.04-0.12,0-0.37,0.12-0.65c0.55-1.41,1.15-2.31,1.82-2.7c1.41-0.9,3.05-1.35,4.93-1.35c3.48,0,5.69,0.94,6.63,2.82l0,0
			l0.41,0.88l0,0c0.23,0.7,0.41,1.78,0.53,3.23l0.18,1.94l0.06,0.23c0.47,5.01,0.84,9.35,1.12,13.02c0.04,0.04,0.06,0.08,0.06,0.12
			l0.06,0.65c0.12,1.68,0.23,3.27,0.35,4.75l0.06,0.65v0.12C291.42,97.17,291.57,99.56,291.69,101.79z"/>
		<path class="st0" d="M325.7,99.73c0.66,0.78,0.94,1.72,0.82,2.82c-0.04,0.2-0.08,0.37-0.12,0.53h0.06l-0.23,0.59l-0.06,0.18
			c-0.63,1.57-1.94,2.37-3.93,2.41c-3.99,0.16-7,0.27-9.03,0.35c-1.14,0-2.09,0-2.87,0c-2.86,0-5.28-0.18-7.27-0.53
			c-1.41-0.23-2.48-0.61-3.23-1.11c-0.12-0.08-0.23-0.16-0.35-0.23c-0.51-0.43-0.88-0.96-1.11-1.58l-0.06-0.06v-0.06l-0.23-0.94l0,0
			c-0.16-0.7-0.22-1.78-0.18-3.23c0-0.47,0-0.8,0-1v-0.12v-0.7c0.04-2.35,0.02-4.56-0.06-6.63c-0.04-3.44-0.18-6.9-0.41-10.38
			c0-0.2-0.02-0.57-0.06-1.11c-0.2-2.97-0.1-5.22,0.29-6.75c0.86-3.4,3.29-5.26,7.27-5.57c2.31-0.2,5.77-0.25,10.38-0.18
			c1.99,0.04,3.6,0.06,4.81,0.06c0.86,0,1.53,0.04,1.99,0.12h0.12c0.51,0.08,0.98,0.2,1.41,0.35c1.41,0.63,2.27,1.7,2.58,3.23
			c0.12,0.63,0.08,1.32-0.12,2.08c-0.2,0.76-0.51,1.38-0.94,1.85c-0.2,0.23-0.41,0.43-0.65,0.59c-0.43,0.23-1.11,0.37-2.05,0.41
			c-2.35,0.04-4.67,0.04-6.98,0c-0.27,0-0.76-0.02-1.47-0.06c-1.41-0.08-2.44-0.08-3.11,0c-0.55,0.08-1,0.22-1.35,0.41
			c-0.47,0.27-0.82,0.7-1.06,1.29c-0.12,0.35-0.2,0.7-0.23,1.06c-0.12,2.23,0.53,3.46,1.94,3.7c1.25,0.2,3.17,0.29,5.75,0.29h1.23
			c3.44,0,5.59,0.59,6.45,1.76c0.27,0.35,0.47,0.82,0.59,1.41c0.27,1.64,0,2.95-0.82,3.93c-0.82,0.94-2.07,1.41-3.75,1.41
			l-5.87-0.06h-3.99c-0.67,0-1.11,0.25-1.35,0.76c-0.2,0.47-0.23,1.33-0.12,2.58c0,0.23,0,0.43,0,0.59
			c0.04,0.78,0.14,1.33,0.29,1.64c0.31,0.78,0.98,1.33,1.99,1.64c1.29,0.39,3.32,0.53,6.1,0.41c2.89-0.16,5.05-0.02,6.45,0.41
			c0.47,0.16,0.9,0.33,1.29,0.53l0.18,0.06l0.59,0.35h-0.06C325.37,99.36,325.54,99.54,325.7,99.73z"/>
		<path class="st0" d="M362.82,90.17c0.55,1.37,0.82,2.89,0.82,4.58c0,1.88-0.36,3.58-1.09,5.1c-0.72,1.53-1.81,2.84-3.26,3.93
			c-1.45,1.1-3.21,1.96-5.28,2.58c-2.27,0.66-4.66,1-7.16,1c-3.01,0-5.83-0.47-8.45-1.41c-1.37-0.47-2.46-1.04-3.29-1.7
			c-0.82-0.63-1.43-1.35-1.82-2.17l-0.23-0.53c-0.04-0.12-0.08-0.23-0.12-0.35c-0.35-1.25-0.23-2.44,0.35-3.58h-0.06l0.35-0.47
			v-0.06l0.06-0.12c0.23-0.31,0.47-0.57,0.7-0.76c0.59-0.39,1.31-0.55,2.17-0.47c0.74,0.08,1.76,0.43,3.05,1.06
			c0.39,0.16,0.68,0.27,0.88,0.35c2.03,0.9,4.07,1.35,6.1,1.35c0.04,0,0.1,0,0.18,0h0.18c0.9-0.04,1.72-0.16,2.46-0.35
			c0.39-0.12,0.78-0.27,1.17-0.47c0.7-0.35,1.23-0.84,1.58-1.47c0.43-0.74,0.53-1.53,0.29-2.35c-0.16-0.59-0.49-1.09-1-1.53
			c-0.51-0.43-0.98-0.73-1.41-0.91c-0.43-0.18-1.06-0.38-1.88-0.62l-0.47-0.18c-0.23-0.08-0.59-0.2-1.06-0.35l-0.82-0.23
			c-1.96-0.63-3.44-1.13-4.46-1.53l-0.88-0.35c-2.58-1.17-4.5-2.62-5.75-4.34c-1.14-1.6-1.76-3.5-1.88-5.69
			c-0.16-2.85,0.61-5.4,2.29-7.63v-0.06l0.76-0.94v0.12c0.39-0.43,0.78-0.79,1.17-1.09c0.39-0.29,0.84-0.6,1.35-0.91h-0.06l1-0.47
			l0.12-0.06c2.46-1.17,5.51-1.76,9.15-1.76c1.88,0,3.6,0.12,5.16,0.35c0.51,0.12,1.09,0.25,1.76,0.41l0.18,0.06l0.59,0.18
			c0.98,0.31,1.82,0.67,2.52,1.06c0.04,0.04,0.14,0.12,0.29,0.23v-0.06l0.53,0.41l0.12,0.12c0.9,0.74,1.49,1.58,1.76,2.52
			c0.23,0.78,0.25,1.62,0.06,2.52c-0.12,0.63-0.33,1.1-0.65,1.41c-0.51,0.59-1.31,0.84-2.41,0.76c-1.45-0.08-3.56-0.35-6.34-0.82
			c-1.96-0.35-3.64-0.39-5.05-0.12c-1.1,0.23-1.92,0.7-2.46,1.41c-0.51,0.67-0.68,1.35-0.53,2.05c0.23,0.86,0.82,1.49,1.76,1.88
			c0.94,0.39,2.37,0.92,4.28,1.58c2.85,0.98,4.97,1.82,6.34,2.52c0.7,0.39,1.43,0.84,2.17,1.35l0.35,0.23l0.18,0.12v0.06
			c0.47,0.35,0.88,0.68,1.23,1c0.51,0.51,0.98,1.11,1.41,1.82h0.06l0.12,0.23l0.18,0.29V89C362.5,89.43,362.7,89.82,362.82,90.17z"
			/>
	</g>
	<g>
		<g>
			<g>
				<polygon class="st0" points="51.4,99.24 43.54,99.24 35.68,78.34 51.4,78.34 				"/>
				<polygon class="st0" points="83.86,99.24 76.01,99.24 76.01,78.34 91.72,78.34 				"/>
				<rect x="59.01" y="78.34" class="st0" width="9.37" height="20.9"/>
			</g>
			<g>
				<path class="st1" d="M102.42,60.78c0-5.81-3.92-10.71-9.26-12.27c-0.16-1.3-0.6-3.79-0.53-3.78C90,34.64,82.13,26.62,72.09,23.7
					c-0.1-0.03-0.2-0.06-0.3-0.09c-0.7-0.2-1.41-0.36-2.13-0.51c-0.18-0.04-0.36-0.08-0.54-0.12c-0.68-0.12-1.36-0.21-2.06-0.29
					c-0.21-0.02-0.42-0.06-0.64-0.08c-0.89-0.08-1.8-0.13-2.71-0.13c0,0,0,0,0,0h0h0c0,0,0,0,0,0c-0.9,0-1.8,0.05-2.68,0.12
					c-0.38,0.03-0.76,0.1-1.14,0.15c-0.48,0.06-0.96,0.12-1.44,0.2c-0.51,0.09-1.01,0.21-1.51,0.33c-0.31,0.07-0.63,0.14-0.94,0.22
					c-0.61,0.16-1.2,0.35-1.79,0.55c-0.17,0.06-0.34,0.11-0.51,0.17c-0.7,0.25-1.39,0.53-2.07,0.83c-0.02,0.01-0.04,0.02-0.06,0.03
					c-8.83,3.93-15.42,11.98-17.22,21.69c-0.21,1.11-0.95,1.98-1.97,2.46c-4.36,2.05-7.38,6.46-7.38,11.56
					c0,3.49,1.4,6.62,3.67,8.92c0.63,0.63,1.52,0.93,2.41,0.93h65.2c0.89,0,1.79-0.3,2.41-0.93
					C100.99,67.38,102.42,64.22,102.42,60.78z"/>
			</g>
		</g>
		<path class="st1" d="M63.7,119.58c-31.46,0-57.06-25.6-57.06-57.06c0-31.47,25.6-57.06,57.06-57.06
			c31.47,0,57.07,25.6,57.07,57.06C120.76,93.98,95.17,119.58,63.7,119.58z M63.7,11.04c-28.38,0-51.48,23.09-51.48,51.48
			S35.31,114,63.7,114c28.39,0,51.48-23.09,51.48-51.48S92.09,11.04,63.7,11.04z"/>
	</g>
</g>
</svg>
