<svg xmlns="http://www.w3.org/2000/svg" xmlns:xlink="http://www.w3.org/1999/xlink" id="레이어_1" data-name="레이어 1" viewBox="0 0 156.39 49.99"><defs><style>.cls-1{fill:none;}.cls-2{clip-path:url(#clip-path);}.cls-3{fill:#000;}</style><clipPath id="clip-path"><rect class="cls-1" width="156.39" height="49.99"/></clipPath></defs><g class="cls-2"><g id="그룹_1" data-name="그룹 1"><path id="패스_1" data-name="패스 1" class="cls-3" d="M90,21.2a2.3,2.3,0,0,1-.28,1.54,1.73,1.73,0,0,1-1.21.59l-.54,0a4.14,4.14,0,0,1-1.52-.28,1.72,1.72,0,0,1-1.08-1.6c-.05-.94-.09-2.35-.13-4.24,0-2.19-.09-3.83-.18-4.93a.3.3,0,0,0,0-.16h0l0,0a3,3,0,0,0-.87,1.36c0,.14-.08.3-.13.49s-.15.65-.26,1.18c0,.14-.07.28-.1.41v.15l0,.16a6.21,6.21,0,0,1-1.13,2.73,2.72,2.72,0,0,1-.9.67,2.29,2.29,0,0,1-2,0,3.76,3.76,0,0,1-2-2c-.08-.26-.24-.67-.46-1.23-.26-.71-.45-1.24-.59-1.6s-.17-.57-.31-1.05a3.65,3.65,0,0,0-.13-.46,2.38,2.38,0,0,1,0-.26,2.64,2.64,0,0,0-.44-1l0,0V12c-.16,2.23-.23,3.91-.23,5l0,.82c0,1.83-.13,3.2-.23,4.11A1.6,1.6,0,0,1,74.67,23a1.37,1.37,0,0,1-.64.25,5.06,5.06,0,0,1-1.9,0,2.16,2.16,0,0,1-.44-.1l0,0L71.33,23h0a2.14,2.14,0,0,1-.39-.28,1.81,1.81,0,0,1-.46-1.19l0-.28v-.05q0-.26,0-.57,0-1.87.33-5.7Q71,13.37,71,12.6l0-.77c.11-1.23.17-2.16.21-2.78,0-.32,0-.57,0-.74s0-.39.1-.67a2.31,2.31,0,0,1,.67-1.29,3.07,3.07,0,0,1,2.16-.71,4,4,0,0,1,.77,0h0l.7.13a1.11,1.11,0,0,1,.34.18l.68.31.08,0a4.1,4.1,0,0,1,1.31,2c.12.34.29.87.52,1.57.54,1.66,1,2.88,1.33,3.67a1.3,1.3,0,0,0,.29.44.24.24,0,0,0,.15.08s.1-.09.15-.21a19.86,19.86,0,0,0,.8-2.36c.19-.64.34-1.11.44-1.42.29-.89.56-1.66.84-2.4V7.6a1.33,1.33,0,0,1,0-.19,2.36,2.36,0,0,1,.8-1.18,3.93,3.93,0,0,1,2.16-.59c1.53,0,2.49.41,2.9,1.23l0,0,.15.36A6.09,6.09,0,0,1,89,8.66l.08.85,0,.1c.21,2.19.37,4.1.49,5.71a.05.05,0,0,1,0,0l0,.28c0,.74.11,1.43.16,2.08l0,.29v0c.09,1.12.16,2.16.21,3.14"/><path id="패스_2" data-name="패스 2" class="cls-3" d="M106.17,14.9a17.88,17.88,0,0,1-.28,3.51,5.87,5.87,0,0,1-1.24,2.66l-.1.1-.28.34v0a5.59,5.59,0,0,1-.62.57h0l-.3.2-.06,0a8.45,8.45,0,0,1-4.75,1.49h-.13a7.77,7.77,0,0,1-1-.08h-.19l-.1,0a8.06,8.06,0,0,1-1.67-.44h0l-.1-.05-.15-.05a10.43,10.43,0,0,1-1.09-.6,6.66,6.66,0,0,1-2.7-3.77l0-.08-.08-.26a9.58,9.58,0,0,1-.23-1.21l0-.25v-.08A13.31,13.31,0,0,1,91,15.47l0-7.66a3.56,3.56,0,0,1,.13-1.08,1.75,1.75,0,0,1,.89-1,3,3,0,0,1,1.4-.33h.1l.36,0A2.41,2.41,0,0,1,95.14,6a2.41,2.41,0,0,1,.67,1.54l0,.36V8a15.06,15.06,0,0,1,0,1.9c0,.43,0,.72,0,.87q0,1,0,2.88c0,1.37,0,2.39,0,3.06a3.28,3.28,0,0,0,.71,2.08,2.49,2.49,0,0,0,2,1,2.45,2.45,0,0,0,2-.67,4.26,4.26,0,0,0,1.1-3.34v-.36l0-1.7,0-4.86a5.64,5.64,0,0,1,.23-2,2.18,2.18,0,0,1,.47-.73,2.62,2.62,0,0,1,.7-.54,2,2,0,0,1,.81-.25,2.11,2.11,0,0,1,.75,0h0l.43.13h0a2.28,2.28,0,0,1,.88.72V6.19l.18.38v0l0,.08a4.42,4.42,0,0,1,.23,1.49c0,1.06,0,2.65,0,4.78Z"/><path id="패스_3" data-name="패스 3" class="cls-3" d="M120.07,7.53a1.73,1.73,0,0,1-.13,1q-.47,1.15-2.46,1.23h-.36c-.28,0-.64,0-1.09-.05h-.28a8,8,0,0,0-1.7,0q-1.59.24-1.77,1.5a1.37,1.37,0,0,0,.44,1.38,2.38,2.38,0,0,0,1.56.49h2l.49,0a2.42,2.42,0,0,1,1.52.23,1.87,1.87,0,0,1,.64.85,3.49,3.49,0,0,1,.21.8v0c0,.11,0,.22,0,.34a1.6,1.6,0,0,1-.49,1.1,2.77,2.77,0,0,1-2,.67h-.36l-1-.08a7.11,7.11,0,0,0-1.9,0,1.3,1.3,0,0,0-1,.59,4.52,4.52,0,0,0-.13,2.16,6.48,6.48,0,0,1,.08.77,2.5,2.5,0,0,1-1.31,2.59,4.47,4.47,0,0,1-1.8.41H109a1.41,1.41,0,0,1-.77-.18,1.17,1.17,0,0,1-.55-.83,2.8,2.8,0,0,1,0-1q0-.42,0-.6c0-.15,0-.35,0-.59s-.05-.54-.1-1c0-.21,0-.44,0-.7l0-.2v-.1a9.39,9.39,0,0,1-.05-1c0-.45,0-1.11.07-2,.06-1.07.07-1.86,0-2.39a11.44,11.44,0,0,0-.13-1.55,8.05,8.05,0,0,1,0-2.77,1.06,1.06,0,0,0,0-.23h0v0l.1-.34V8a3.51,3.51,0,0,1,1.77-1.9.31.31,0,0,0,.13-.06h0l.3-.1h0l0,0a7.16,7.16,0,0,1,2.44-.18h.39c.7,0,1.75,0,3.13,0h.34a6.66,6.66,0,0,1,2.72.42,2,2,0,0,1,1.16,1.41"/><path id="패스_4" data-name="패스 4" class="cls-3" d="M133.23,7.53a1.73,1.73,0,0,1-.13,1c-.31.77-1.13,1.18-2.47,1.23h-.36c-.27,0-.63,0-1.08-.05h-.28a8,8,0,0,0-1.7,0q-1.59.24-1.77,1.5a1.37,1.37,0,0,0,.44,1.38,2.38,2.38,0,0,0,1.56.49h2l.49,0a2.42,2.42,0,0,1,1.52.23,1.87,1.87,0,0,1,.64.85,3,3,0,0,1,.2.8v0a1.87,1.87,0,0,1,0,.34,1.6,1.6,0,0,1-.49,1.1,2.8,2.8,0,0,1-2.05.67h-.36l-.95-.08a7.11,7.11,0,0,0-1.9,0,1.3,1.3,0,0,0-1,.59,4.4,4.4,0,0,0-.13,2.16c0,.25.06.51.08.77a2.49,2.49,0,0,1-1.32,2.59,4.47,4.47,0,0,1-1.8.41h-.25a1.29,1.29,0,0,1-.77-.18,1.12,1.12,0,0,1-.56-.83,2.8,2.8,0,0,1,0-1c0-.27,0-.47,0-.59s0-.35,0-.59,0-.55-.1-1c0-.21,0-.44,0-.69l0-.21v-.1a9.39,9.39,0,0,1,0-1c0-.45,0-1.11.07-2,.06-1.06.07-1.86.06-2.39s-.06-1-.13-1.55a8.05,8.05,0,0,1,0-2.77c0-.08,0-.16,0-.23h0v0l.1-.34V8a3.51,3.51,0,0,1,1.77-1.9.31.31,0,0,0,.13-.06h0l.3-.1h0l0,0a7.16,7.16,0,0,1,2.44-.18h.39c.7,0,1.75,0,3.13,0h.34a6.66,6.66,0,0,1,2.72.42,2,2,0,0,1,1.16,1.41"/><path id="패스_5" data-name="패스 5" class="cls-3" d="M138.65,21.3c0,.12,0,.24,0,.36v.08l0,.3v0a1.74,1.74,0,0,1-.13.36,1.58,1.58,0,0,1-1.15.87l0,0-.28,0H137a2.19,2.19,0,0,1-.36,0h-.18l-.69-.08a2,2,0,0,1-1.47-.64,2,2,0,0,1-.28-1q-.18-1.86-.21-4.14v-1.9c0-.67,0-1.66.06-3,.05-2,.06-3.44.05-4.42V7.86a2.46,2.46,0,0,1,.66-1.9,2.52,2.52,0,0,1,1.13-.51h0l.38,0h.06a2.39,2.39,0,0,1,2.08.69,3,3,0,0,1,.42,2.06l0,.2c0,.64,0,1.58-.05,2.83v.2c0,1.2,0,3,.05,5.43,0,2,.08,3.5.08,4.5"/><path id="패스_6" data-name="패스 6" class="cls-3" d="M155.64,17v0a27.09,27.09,0,0,1-.23,4.68,2.29,2.29,0,0,1-.35.92,1.54,1.54,0,0,1-.63.47,4.21,4.21,0,0,1-.72.18,7,7,0,0,1-.92.08,4.88,4.88,0,0,1-1.42-.21,4.36,4.36,0,0,1-2.44-2.49c-.73-1.58-1.92-3.92-3.54-7l-.16-.25a1,1,0,0,0-.23-.34c-.1-.08-.19-.09-.26,0s-.08.12-.1.28a13.52,13.52,0,0,0,0,1.8c0,.48.05.84.05,1.08s0,.87,0,1.49v.08c0,1.13,0,2,0,2.62,0,.44,0,.77,0,1a3.32,3.32,0,0,1-.09.89,1.4,1.4,0,0,1-.45.71,2.13,2.13,0,0,1-1,.36,5.64,5.64,0,0,1-1.59-.13,2.18,2.18,0,0,1-.95-.44,2.62,2.62,0,0,1-.54-1.93c0-1.14,0-2.88,0-5.21q0-1.52,0-2.52V7.91a2.76,2.76,0,0,1,.33-1.59,1.82,1.82,0,0,1,1-.62,6.61,6.61,0,0,1,1.18-.2h0l.36,0v0h.33a3.83,3.83,0,0,1,1.9.56l0,0,.23.23h0l0,0,.05,0v0a5.34,5.34,0,0,1,1,1.57,1.39,1.39,0,0,0,.12.28c.14.29.36.73.67,1.31l.54,1,.1.23.23.47c.16.27.3.55.44.84l.13.29h0v.05c.51,1,1.09,2.2,1.72,3.52a0,0,0,0,1,0,0h0l.05-.1a4.19,4.19,0,0,0,.25-1.72v-.36c0-.89,0-1.75,0-2.6a26.23,26.23,0,0,1,.18-4.34,1.54,1.54,0,0,1,.46-1,1.65,1.65,0,0,1,.77-.29l.39,0a7,7,0,0,1,1,0,.85.85,0,0,1,.23,0v0l.31.1h0l.44.2a2,2,0,0,1,.75,1.52,18.11,18.11,0,0,1,0,2.21c0,.51,0,.9,0,1.16v4.08a3.58,3.58,0,0,0,0,.36v.16c0,.29,0,.77,0,1.44V17Z"/><path id="패스_7" data-name="패스 7" class="cls-3" d="M85.93,35a4.47,4.47,0,0,1,0,1.59l0,.23a4,4,0,0,0,0,.44l0,2.55v.3a6.28,6.28,0,0,1-.13,1.44c0,.12-.07.23-.1.34A3.63,3.63,0,0,1,83.36,44a9.78,9.78,0,0,1-3.67.62h-.42l-.31,0c-.32,0-.65,0-1-.07l-.31,0h-.05l-.44-.08-.21,0c-.48-.09-1-.2-1.44-.34l-.59-.2-.18,0A6.08,6.08,0,0,1,72.22,42a10.54,10.54,0,0,1-1.76-2.81,10,10,0,0,1-.31-7.07,8.44,8.44,0,0,1,.36-.9,8,8,0,0,1,1.68-2.45,7.7,7.7,0,0,1,2.45-1.66l.06,0,.25-.08,0,0a12.57,12.57,0,0,1,1.23-.39l.23-.05.08,0h0a11.84,11.84,0,0,1,5.52.07l.18.05a4.55,4.55,0,0,1,2.88,2,1.76,1.76,0,0,1,.26.8,1.64,1.64,0,0,1-.31.8c-.33.55-.67.84-1,.87a.65.65,0,0,1-.31,0h0l-.34-.16,0,0-.15-.08a5.42,5.42,0,0,0-.85-.31L82,30.38a8.34,8.34,0,0,0-2.39-.3,5.55,5.55,0,0,0-3.41,1.2,5,5,0,0,0-1.78,3.46,6.39,6.39,0,0,0,.21,2.68c.1.26.21.52.33.77a4.52,4.52,0,0,0,2.06,2,4.32,4.32,0,0,0,2.83.37,2,2,0,0,0,1.28-.69,1.45,1.45,0,0,0,.22-.95A1.85,1.85,0,0,0,81,38a1.9,1.9,0,0,0-1.54-.54l-.38,0a1.7,1.7,0,0,1-.39,0,1.57,1.57,0,0,1-.37,0,.49.49,0,0,1-.3-.21,1.11,1.11,0,0,1-.21-.42,5.91,5.91,0,0,1-.18-1.57.64.64,0,0,0,0-.2l0,0a1.54,1.54,0,0,1,.83-1.13,2.3,2.3,0,0,1,1-.15l1,0h0l.25,0h.08q.75,0,1.23,0l.77,0a6.56,6.56,0,0,1,1.47,0,2.87,2.87,0,0,1,.64.23,2.15,2.15,0,0,1,.58.45,1.66,1.66,0,0,1,.37.66"/><path id="패스_8" data-name="패스 8" class="cls-3" d="M103.85,43.25h0l-.13.34,0,0a1.64,1.64,0,0,1-.68.6,2.47,2.47,0,0,1-1.07.22,4.9,4.9,0,0,1-.93-.1,2.34,2.34,0,0,1-1.85-1.59c0-.14-.11-.33-.18-.59A2.66,2.66,0,0,0,98.4,41a1.45,1.45,0,0,0-.23-.19,4.7,4.7,0,0,0-2.28-.4l-.39,0a5.49,5.49,0,0,0-1.28.1,1.63,1.63,0,0,0-.49.2,3.22,3.22,0,0,0-1,1.44l0,.1h0c-.09.26-.2.51-.31.75a3.14,3.14,0,0,1-.43.6,1.74,1.74,0,0,1-.7.5,3.67,3.67,0,0,1-1.3.33,2.84,2.84,0,0,1-1.38-.23,1.55,1.55,0,0,1-.9-1,2.37,2.37,0,0,1,.08-1.21q.73-3.11,2.9-9.18l.31-.84c.36-1,.64-1.79.85-2.39a.43.43,0,0,1,.05-.16l.08-.22L92,29a4.1,4.1,0,0,1,.92-1.57,4,4,0,0,1,2.73-.92A4.39,4.39,0,0,1,99,27.55a5.67,5.67,0,0,1,1.13,2.21c.31,1,.64,2,1,3.11l.08.21c.12.38.24.76.36,1.16l.1.36v0l0,.08c.55,1.81,1.23,4.13,2.06,6.94l0,.1,0,.07,0,.1a2.78,2.78,0,0,1,.08,1.34M96.14,31.84a.65.65,0,0,0-.1-.15.17.17,0,0,0-.1,0,.61.61,0,0,0-.13,0l-.1.1a.91.91,0,0,0-.23.46c-.21.67-.44,1.34-.69,2l-.26.49a2.55,2.55,0,0,0-.39,1.13.7.7,0,0,0,.39.62,1.82,1.82,0,0,0,1,.15,2.6,2.6,0,0,0,.9-.23c.9-.48,1-1.56.38-3.24-.15-.37-.35-.79-.59-1.26Z"/><path id="패스_9" data-name="패스 9" class="cls-3" d="M124.87,42.2a2.19,2.19,0,0,1-.28,1.54,1.73,1.73,0,0,1-1.21.6l-.54,0a4.09,4.09,0,0,1-1.51-.28,1.69,1.69,0,0,1-1.08-1.59c-.06-1-.1-2.36-.13-4.24,0-2.2-.1-3.84-.18-4.94a.66.66,0,0,0,0-.15h0l0,0a3.1,3.1,0,0,0-.87,1.37c0,.13-.07.3-.13.48s-.15.66-.25,1.19a1.89,1.89,0,0,0-.1.41l0,.23,0,.08a6.27,6.27,0,0,1-1.14,2.71,2.47,2.47,0,0,1-.9.67,2.26,2.26,0,0,1-2,0,3.75,3.75,0,0,1-1.22-.82,3.51,3.51,0,0,1-.78-1.19c-.09-.25-.24-.66-.46-1.23s-.46-1.23-.6-1.59-.17-.58-.3-1.06c-.06-.2-.1-.36-.13-.46a1.09,1.09,0,0,1,0-.26,2.94,2.94,0,0,0-.44-1l0,0V33c-.15,2.23-.23,3.91-.23,5l0,.82c-.05,1.84-.13,3.21-.23,4.12a1.54,1.54,0,0,1-.42,1,1.3,1.3,0,0,1-.64.26,5.06,5.06,0,0,1-1.9,0,3.48,3.48,0,0,1-.44-.1l0,0-.31-.13h0a1.49,1.49,0,0,1-.38-.28,1.79,1.79,0,0,1-.47-1.18v0l0-.26V42.2c0-.17,0-.36,0-.56q0-1.87.34-5.71l.18-2.34,0-.77c.1-1.23.17-2.16.2-2.77,0-.33,0-.58,0-.75s.06-.39.1-.66a2.37,2.37,0,0,1,.67-1.29,3.09,3.09,0,0,1,2.16-.72,3.29,3.29,0,0,1,.77,0h0l.69.12a1.91,1.91,0,0,1,.36.13l.67.36.08.05a4.1,4.1,0,0,1,1.31,2c.12.35.29.87.51,1.57.55,1.66,1,2.89,1.34,3.68a1.23,1.23,0,0,0,.28.43.21.21,0,0,0,.16.07s.1-.08.16-.2a23.56,23.56,0,0,0,.8-2.37c.18-.63.33-1.1.43-1.41.29-.89.58-1.7.85-2.44a1.35,1.35,0,0,1,0-.28,2.36,2.36,0,0,1,.8-1.18,3.93,3.93,0,0,1,2.16-.59c1.53,0,2.49.41,2.9,1.23l.18.39a6.11,6.11,0,0,1,.23,1.41l.08.85,0,.1c.2,2.19.37,4.09.49,5.71a.08.08,0,0,1,0,0l0,.28c.05.74.1,1.43.15,2.08l0,.28v.06c.08,1.11.15,2.16.2,3.13"/><path id="패스_10" data-name="패스 10" class="cls-3" d="M139.77,41.3a1.57,1.57,0,0,1,.36,1.23c0,.09,0,.17,0,.23h0L140,43l0,.08a1.69,1.69,0,0,1-1.72,1l-4,.16H133a18.83,18.83,0,0,1-3.18-.23,3.54,3.54,0,0,1-1.41-.49l-.16-.1a1.75,1.75,0,0,1-.49-.69l0,0v0l-.1-.41a6,6,0,0,1-.08-1.41v-.8c0-1,0-2,0-2.9,0-1.51-.08-3-.18-4.55,0-.08,0-.25,0-.49a10.07,10.07,0,0,1,.13-2.95,3.16,3.16,0,0,1,3.19-2.44c1-.09,2.52-.11,4.54-.08l2.11,0a5.2,5.2,0,0,1,.88.05h0a3.2,3.2,0,0,1,.61.15A1.87,1.87,0,0,1,140,28.35a2.2,2.2,0,0,1-.05.92,2,2,0,0,1-.41.81,1.67,1.67,0,0,1-.28.25,2,2,0,0,1-.9.18q-1.55,0-3.06,0l-.64,0a7.84,7.84,0,0,0-1.37,0,1.61,1.61,0,0,0-.59.18,1.1,1.1,0,0,0-.46.56,1.88,1.88,0,0,0-.1.47c0,1,.23,1.51.85,1.61a16.24,16.24,0,0,0,2.52.13h.54c1.5,0,2.44.26,2.82.77a1.61,1.61,0,0,1,.26.62,1.83,1.83,0,0,1-2,2.34l-2.57,0h-1.74a.58.58,0,0,0-.59.34,2.54,2.54,0,0,0-.05,1.13v.26a1.93,1.93,0,0,0,.12.71,1.26,1.26,0,0,0,.88.72,8.56,8.56,0,0,0,2.67.18,9,9,0,0,1,2.83.18,5.48,5.48,0,0,1,.56.23l.08,0,.26.15h0a1.31,1.31,0,0,1,.23.24"/><path id="패스_11" data-name="패스 11" class="cls-3" d="M156,37.11a5.65,5.65,0,0,1-.11,4.24,4.67,4.67,0,0,1-1.43,1.72,7.41,7.41,0,0,1-2.31,1.13,11.5,11.5,0,0,1-3.14.44,10.85,10.85,0,0,1-3.7-.62,4.72,4.72,0,0,1-1.44-.75,2.55,2.55,0,0,1-.8-1l-.1-.23a.88.88,0,0,0-.05-.15,2.09,2.09,0,0,1,.16-1.57h0l.16-.2v0l0,0a1.62,1.62,0,0,1,.31-.33,1.38,1.38,0,0,1,1-.21,4.53,4.53,0,0,1,1.34.46l.38.16a6.66,6.66,0,0,0,2.68.59h.15a5.63,5.63,0,0,0,1.08-.16,2.85,2.85,0,0,0,.51-.2,1.57,1.57,0,0,0,.7-.65,1.26,1.26,0,0,0,.13-1,1.34,1.34,0,0,0-.44-.67,2.13,2.13,0,0,0-.62-.4,6,6,0,0,0-.82-.27l-.2-.08-.47-.15-.36-.1c-.85-.28-1.51-.5-2-.67l-.39-.16a6.17,6.17,0,0,1-2.51-1.9,4.63,4.63,0,0,1-.83-2.49,4.94,4.94,0,0,1,1-3.34v0l.34-.41v.05a3.79,3.79,0,0,1,.51-.47c.17-.13.37-.26.59-.4h0l.43-.21.06,0a9.33,9.33,0,0,1,4-.77,15.64,15.64,0,0,1,2.27.15l.77.18.07,0,.26.08a5.57,5.57,0,0,1,1.1.46l.13.1v0l.23.18.05.05a2.08,2.08,0,0,1,.8,2.21,1.1,1.1,0,0,1-1.34.94c-.93-.07-1.85-.19-2.77-.35a6.09,6.09,0,0,0-2.21-.06,1.78,1.78,0,0,0-1.08.62,1.05,1.05,0,0,0-.23.9,1.19,1.19,0,0,0,.77.82c.41.18,1,.41,1.87.7a21.42,21.42,0,0,1,2.78,1.1c.31.17.62.37.95.59l.15.1.08,0v0c.21.15.39.3.54.43a4.39,4.39,0,0,1,.62.8h0l.05.1.08.13v0a2.45,2.45,0,0,1,.26.51"/><path id="패스_12" data-name="패스 12" class="cls-3" d="M19.61,41.09H16.17l-3.45-9.16h6.89Z"/><path id="패스_13" data-name="패스 13" class="cls-3" d="M33.83,41.09H30.39V31.93h6.88Z"/><rect id="사각형_2" data-name="사각형 2" class="cls-3" x="22.94" y="31.93" width="4.11" height="9.16"/><path id="패스_14" data-name="패스 14" class="cls-3" d="M42,24.24a5.61,5.61,0,0,0-4.06-5.38c-.07-.57-.26-1.66-.23-1.65a13.09,13.09,0,0,0-9-9.22l-.13,0c-.31-.09-.62-.16-.93-.22l-.24-.05c-.3-.06-.6-.1-.9-.13l-.28,0c-.4,0-.79,0-1.19,0h0c-.4,0-.79,0-1.17,0l-.5.07a6,6,0,0,0-.63.09,6.4,6.4,0,0,0-.66.14l-.42.1-.78.24-.23.07c-.31.11-.61.24-.9.37h0a13.05,13.05,0,0,0-7.54,9.5,1.48,1.48,0,0,1-.87,1.07A5.59,5.59,0,0,0,8,24.24a5.47,5.47,0,0,0,1.6,3.9,1.46,1.46,0,0,0,1.06.41H39.26a1.43,1.43,0,0,0,1.06-.41A5.55,5.55,0,0,0,42,24.24"/><path id="패스_15" data-name="패스 15" class="cls-3" d="M25,50A25,25,0,1,1,50,25,25,25,0,0,1,25,50M25,2.44A22.56,22.56,0,1,0,47.55,25,22.56,22.56,0,0,0,25,2.44"/></g></g></svg>